HIERARCHY
ROOT hip
{
  OFFSET 0 0 0
  CHANNELS 6 Xposition Yposition Zposition Zrotation Yrotation Xrotation
  JOINT abdomen
  {
    OFFSET 0 20.6881 -0.73152
    CHANNELS 3 Zrotation Xrotation Yrotation
    JOINT chest
    {
      OFFSET 0 11.7043 -0.48768
      CHANNELS 3 Zrotation Xrotation Yrotation
      JOINT neck
      {
        OFFSET 0 22.1894 -2.19456
        CHANNELS 3 Zrotation Xrotation Yrotation
        JOINT head
        {
          OFFSET -0.24384 7.07133 1.2192
          CHANNELS 3 Zrotation Xrotation Yrotation
          JOINT leftEye
          {
            OFFSET 4.14528 8.04674 8.04672
            CHANNELS 3 Zrotation Xrotation Yrotation
            End Site
            {
              OFFSET 1 0 0
            }
          }
          JOINT rightEye
          {
            OFFSET -3.6576 8.04674 8.04672
            CHANNELS 3 Zrotation Xrotation Yrotation
            End Site
            {
              OFFSET 1 0 0
            }
          }
        }
      }
      JOINT rCollar
      {
        OFFSET -2.68224 19.2634 -4.8768
        CHANNELS 3 Zrotation Xrotation Yrotation
        JOINT rShldr
        {
          OFFSET -8.77824 -1.95073 1.46304
          CHANNELS 3 Zrotation Xrotation Yrotation
          JOINT rForeArm
          {
            OFFSET -28.1742 -1.7115 0.48768
            CHANNELS 3 Zrotation Xrotation Yrotation
            JOINT rHand
            {
              OFFSET -22.5879 0.773209 7.07136
              CHANNELS 3 Zrotation Xrotation Yrotation
              JOINT rThumb1
              {
                OFFSET -1.2192 -0.487915 3.41376
                CHANNELS 3 Zrotation Xrotation Yrotation
                JOINT rThumb2
                {
                  OFFSET -3.37035 -0.52449 3.41376
                  CHANNELS 3 Zrotation Xrotation Yrotation
                  End Site
                  {
                    OFFSET -1.78271 -1.18214 1.43049
                  }
                }
              }
              JOINT rIndex1
              {
                OFFSET -7.75947 0.938293 5.60832
                CHANNELS 3 Zrotation Xrotation Yrotation
                JOINT rIndex2
                {
                  OFFSET -2.54057 -0.884171 1.56538
                  CHANNELS 3 Zrotation Xrotation Yrotation
                  End Site
                  {
                    OFFSET -1.62519 -0.234802 1.16502
                  }
                }
              }
              JOINT rMid1
              {
                OFFSET -8.24714 1.18213 3.41376
                CHANNELS 3 Zrotation Xrotation Yrotation
                JOINT rMid2
                {
                  OFFSET -3.10165 -0.590103 1.0647
                  CHANNELS 3 Zrotation Xrotation Yrotation
                  End Site
                  {
                    OFFSET -2.48547 -0.328903 0.83742
                  }
                }
              }
              JOINT rRing1
              {
                OFFSET -8.82822 0.546677 1.51678
                CHANNELS 3 Zrotation Xrotation Yrotation
                JOINT rRing2
                {
                  OFFSET -2.60934 -0.819778 -0.0198488
                  CHANNELS 3 Zrotation Xrotation Yrotation
                  End Site
                  {
                    OFFSET -2.33842 -0.294052 0.168128
                  }
                }
              }
              JOINT rPinky1
              {
                OFFSET -8.27202 -0.0477905 -0.4584
                CHANNELS 3 Zrotation Xrotation Yrotation
                JOINT rPinky2
                {
                  OFFSET -1.82734 -0.647385 -0.700984
                  CHANNELS 3 Zrotation Xrotation Yrotation
                  End Site
                  {
                    OFFSET -1.69225 -0.51767 -0.607171
                  }
                }
              }
            }
          }
        }
      }
      JOINT lCollar
      {
        OFFSET 2.68224 19.2634 -4.8768
        CHANNELS 3 Zrotation Xrotation Yrotation
        JOINT lShldr
        {
          OFFSET 8.77824 -1.95073 1.46304
          CHANNELS 3 Zrotation Xrotation Yrotation
          JOINT lForeArm
          {
            OFFSET 28.1742 -1.7115 0.48768
            CHANNELS 3 Zrotation Xrotation Yrotation
            JOINT lHand
            {
              OFFSET 22.5879 0.773209 7.07136
              CHANNELS 3 Zrotation Xrotation Yrotation
              JOINT lThumb1
              {
                OFFSET 1.2192 -0.487915 3.41376
                CHANNELS 3 Zrotation Xrotation Yrotation
                JOINT lThumb2
                {
                  OFFSET 3.37035 -0.52449 3.41376
                  CHANNELS 3 Zrotation Xrotation Yrotation
                  End Site
                  {
                    OFFSET 1.78271 -1.18214 1.43049
                  }
                }
              }
              JOINT lIndex1
              {
                OFFSET 7.75947 0.938293 5.60832
                CHANNELS 3 Zrotation Xrotation Yrotation
                JOINT lIndex2
                {
                  OFFSET 2.54057 -0.884171 1.56538
                  CHANNELS 3 Zrotation Xrotation Yrotation
                  End Site
                  {
                    OFFSET 1.62519 -0.234802 1.16502
                  }
                }
              }
              JOINT lMid1
              {
                OFFSET 8.24714 1.18213 3.41376
                CHANNELS 3 Zrotation Xrotation Yrotation
                JOINT lMid2
                {
                  OFFSET 3.10165 -0.590103 1.0647
                  CHANNELS 3 Zrotation Xrotation Yrotation
                  End Site
                  {
                    OFFSET 2.48547 -0.328903 0.83742
                  }
                }
              }
              JOINT lRing1
              {
                OFFSET 8.82822 0.546677 1.51678
                CHANNELS 3 Zrotation Xrotation Yrotation
                JOINT lRing2
                {
                  OFFSET 2.60934 -0.819778 -0.0198488
                  CHANNELS 3 Zrotation Xrotation Yrotation
                  End Site
                  {
                    OFFSET 2.33842 -0.294052 0.168128
                  }
                }
              }
              JOINT lPinky1
              {
                OFFSET 8.27202 -0.0477905 -0.4584
                CHANNELS 3 Zrotation Xrotation Yrotation
                JOINT lPinky2
                {
                  OFFSET 1.82734 -0.647385 -0.700984
                  CHANNELS 3 Zrotation Xrotation Yrotation
                  End Site
                  {
                    OFFSET 1.69225 -0.51767 -0.607171
                  }
                }
              }
            }
          }
        }
      }
    }
  }
  JOINT rButtock
  {
    OFFSET -8.77824 4.35084 1.2192
    CHANNELS 3 Zrotation Xrotation Yrotation
    JOINT rThigh
    {
      OFFSET 0 -1.70687 -2.19456
      CHANNELS 3 Zrotation Xrotation Yrotation
      JOINT rShin
      {
        OFFSET 0 -36.8199 0.73152
        CHANNELS 3 Zrotation Xrotation Yrotation
        JOINT rFoot
        {
          OFFSET 0.73152 -45.1104 -5.12064
          CHANNELS 3 Zrotation Xrotation Yrotation
          End Site
          {
            OFFSET -1.1221 -3.69964 12.103
          }
        }
      }
    }
  }
  JOINT lButtock
  {
    OFFSET 8.77824 4.35084 1.2192
    CHANNELS 3 Zrotation Xrotation Yrotation
    JOINT lThigh
    {
      OFFSET 0 -1.70687 -2.19456
      CHANNELS 3 Zrotation Xrotation Yrotation
      JOINT lShin
      {
        OFFSET 0 -36.8199 0.73152
        CHANNELS 3 Zrotation Xrotation Yrotation
        JOINT lFoot
        {
          OFFSET -0.73152 -45.1104 -5.12064
          CHANNELS 3 Zrotation Xrotation Yrotation
          End Site
          {
            OFFSET 1.1221 -3.69964 12.103
          }
        }
      }
    }
  }
}
MOTION
Frames:	5
Frame Time:	0.00833333
-207.113 56.1848 -36.1917 0.0 0.0 0.0 -3.13106 0.00208557 -0.0844993 -0.863193 0.018196 -0.149325 -4.15443e-14 -1.59028e-15 8.44835e-16 -1.25418e-13 3.18055e-15 2.18353e-15 -0.0 0.0 0.0 -0.0 0.0 0.0 -2.15206e-14 -1.32005e-17 3.97569e-16 -4.37873e-13 -5.90142e-16 7.55382e-15 -7.57335e-12 2.25819e-12 2.35361e-13 -8.68981e-11 -2.36146e-12 1.41217e-12 -2.04938e-10 -2.24053e-13 3.57494e-12 -3.53925e-10 -3.88028e-13 6.17266e-12 -2.04931e-10 -2.22241e-13 3.57176e-12 7.73091 5.47488 0.417314 -2.04937e-10 -2.23633e-13 3.57812e-12 2.90554 0.965183 0.102902 -2.04926e-10 -2.23434e-13 3.57494e-12 10.2786 0.731801 0.0259123 -2.04939e-10 -2.25024e-13 3.5813e-12 2.22167 -0.733487 -0.20892 -2.14183e-14 -2.25186e-17 1.98785e-16 -4.44596e-13 -5.46658e-16 5.36719e-15 -7.6133e-12 -2.27608e-12 2.16278e-13 -8.6851e-11 2.1746e-12 1.43443e-12 -2.04924e-10 -2.20332e-13 3.5813e-12 -3.53898e-10 -3.75305e-13 6.19731e-12 -2.04933e-10 -2.1747e-13 3.59403e-12 -7.73091 5.47488 -0.417314 -2.04925e-10 -2.20651e-13 3.57812e-12 -2.90554 0.965183 -0.102902 -2.04936e-10 -2.20055e-13 3.5821e-12 -10.2786 0.731801 -0.0259123 -2.04922e-10 -2.17073e-13 3.5813e-12 -2.22167 -0.733487 0.20892 -2.03217e-16 0.0 -3.88251e-19 -1.92065 -1.93503 0.0146554 -0.00848704 -2.07867 -0.069641 -0.456697 4.00011 0.132168 2.03217e-16 0.0 3.88251e-19 -2.8401 -9.32604 0.322505 -0.00901299 11.3075 -0.234969 0.529339 -1.99493 -0.0185559
-200.438 54.4865 -47.42 -176.551 45.3751 176.361 -8.39578 14.286 -1.39728 0.589236 -0.220468 -0.618598 -3.3564 1.96294 -1.8374 10.469 -12.1749 1.46452 -0.0 0.0 0.0 -0.0 0.0 0.0 -1.90084e-13 -9.5007e-15 1.14088e-13 22.0501 1.7446 0.218684 -11.5293 -8.44243 13.2029 0.0428895 -4.66485 -0.648239 -3.67346e-10 -1.23098e-09 2.17735e-09 -6.67854e-10 -2.14777e-09 3.76144e-09 -3.67342e-10 -1.23097e-09 2.17734e-09 7.73091 5.47488 0.417314 -3.67346e-10 -1.23098e-09 2.17735e-09 2.90554 0.965183 0.102902 -3.67335e-10 -1.23097e-09 2.17735e-09 10.2786 0.731801 0.0259123 -3.67345e-10 -1.23098e-09 2.17735e-09 2.22167 -0.733487 -0.20892 -1.90049e-13 -9.50917e-15 1.13856e-13 -10.0038 3.86818 -18.4309 4.90424 -2.3763 -7.5059 -0.00953341 2.54759 -0.357099 1.54358e-09 -1.40315e-09 -5.58839e-10 2.66502e-09 -2.43666e-09 -9.82877e-10 1.54357e-09 -1.40314e-09 -5.58829e-10 -7.73091 5.47488 -0.417314 1.54358e-09 -1.40315e-09 -5.58844e-10 -2.90554 0.965183 -0.102902 1.54357e-09 -1.40315e-09 -5.58839e-10 -10.2786 0.731801 -0.0259123 1.54359e-09 -1.40314e-09 -5.58842e-10 -2.22167 -0.733487 0.20892 -2.03217e-16 0.0 -3.88251e-19 -5.30083 -16.7821 -1.84711 0.181615 23.1855 0.239674 -0.478005 0.142294 -4.01251 2.03217e-16 0.0 3.88251e-19 -3.92302 -22.2897 1.63808 -0.0489955 31.3798 -0.513773 0.585519 -5.41431 1.21234
-197.614 54.2986 -47.5836 -177.852 44.1644 175.2 -13.1991 29.3506 -3.07335 2.10278 -0.463054 -1.11556 -6.74396 4.02572 -3.81515 22.3455 -24.9947 3.21205 -0.0 0.0 0.0 -0.0 0.0 0.0 -3.77093e-13 -2.66406e-14 2.36026e-13 45.3497 3.57161 0.49639 -19.4714 -15.8057 27.9837 -0.028414 -9.50121 -1.33523 -5.44805e-10 -2.55953e-09 4.52015e-09 -1.01007e-09 -4.46569e-09 7.80862e-09 -5.44803e-10 -2.55952e-09 4.52015e-09 7.73091 5.47488 0.417314 -5.44806e-10 -2.55952e-09 4.52015e-09 2.90554 0.965183 0.102902 -5.44794e-10 -2.55952e-09 4.52014e-09 10.2786 0.731801 0.0259123 -5.44802e-10 -2.55952e-09 4.52015e-09 2.22167 -0.733487 -0.20892 -3.7713e-13 -2.66493e-14 2.35756e-13 -18.1424 6.63932 -38.135 9.3412 -4.68683 -15.3812 0.0179667 5.39502 -0.758909 3.47909e-09 -2.92544e-09 -1.15047e-09 6.00676e-09 -5.08022e-09 -2.02404e-09 3.47908e-09 -2.92544e-09 -1.15046e-09 -7.73091 5.47488 -0.417314 3.47909e-09 -2.92544e-09 -1.15047e-09 -2.90554 0.965183 -0.102902 3.47908e-09 -2.92544e-09 -1.15047e-09 -10.2786 0.731801 -0.0259123 3.47909e-09 -2.92544e-09 -1.15047e-09 -2.22167 -0.733487 0.20892 -2.03217e-16 0.0 -3.88251e-19 -9.95987 -32.4253 -4.44201 -0.057924 50.2089 0.821596 -1.15354 -4.01451 -8.56051 2.03217e-16 0.0 3.88251e-19 -4.34778 -36.0309 3.50914 0.282385 52.5942 -1.08495 0.834586 -8.96397 2.60324
-195.069 54.1406 -47.8269 -179.897 42.8824 173.954 -16.3539 42.7434 -5.30468 3.48237 -0.697578 -1.55725 -9.69047 5.86454 -5.53803 33.656 -36.4172 5.33968 -0.0 0.0 0.0 -0.0 0.0 0.0 -5.27211e-13 -2.84757e-14 3.41468e-13 66.1102 5.23351 0.658493 -23.3799 -19.8712 42.1935 -0.196166 -13.9873 -1.99752 -6.92163e-10 -3.69249e-09 6.52489e-09 -1.29571e-09 -6.44252e-09 1.1272e-08 -6.92163e-10 -3.69248e-09 6.52489e-09 7.73091 5.47488 0.417314 -6.92164e-10 -3.69248e-09 6.52489e-09 2.90554 0.965183 0.102902 -6.92152e-10 -3.69248e-09 6.52489e-09 10.2786 0.731801 0.0259123 -6.92157e-10 -3.69248e-09 6.52489e-09 2.22167 -0.733487 -0.20892 -5.2731e-13 -2.84825e-14 3.4117e-13 -23.7872 6.95051 -55.7764 12.8879 -6.64061 -22.6586 0.0673885 7.64157 -1.07983 5.04059e-09 -4.209e-09 -1.68368e-09 8.70286e-09 -7.30924e-09 -2.96103e-09 5.04058e-09 -4.20899e-09 -1.68367e-09 -7.73091 5.47488 -0.417314 5.04059e-09 -4.209e-09 -1.68369e-09 -2.90554 0.965183 -0.102902 5.04059e-09 -4.209e-09 -1.68368e-09 -10.2786 0.731801 -0.0259123 5.0406e-09 -4.20899e-09 -1.68369e-09 -2.22167 -0.733487 0.20892 -2.03217e-16 0.0 -3.88251e-19 -16.0554 -46.2402 -7.72518 -1.8968 73.6953 2.85115 -2.19132 -7.39748 -12.4061 2.03217e-16 0.0 3.88251e-19 -3.48059 -48.0921 5.86023 1.71832 71.5081 -2.69678 1.14742 -12.2313 3.74296
-192.611 54.0531 -47.9157 -180.633 41.2729 173.786 -17.2077 52.0444 -7.87384 4.53461 -0.912133 -1.86068 -11.8096 7.1681 -6.5986 41.9939 -44.4307 7.62831 -0.0 0.0 0.0 -0.0 0.0 0.0 -5.85098e-13 7.95139e-15 4.0567e-13 80.5648 6.48312 0.528146 -24.8829 -20.8469 52.5375 -0.395794 -17.6035 -2.55575 -7.64265e-10 -4.33646e-09 7.68449e-09 -1.43994e-09 -7.5666e-09 1.32758e-08 -7.64266e-10 -4.33646e-09 7.68449e-09 7.73091 5.47488 0.417314 -7.64267e-10 -4.33645e-09 7.68449e-09 2.90554 0.965183 0.102902 -7.64255e-10 -4.33645e-09 7.68449e-09 10.2786 0.731801 0.0259123 -7.64258e-10 -4.33645e-09 7.68449e-09 2.22167 -0.733487 -0.20892 -5.85236e-13 7.95139e-15 4.05372e-13 -27.0798 5.65167 -67.8701 15.3573 -8.10353 -28.3273 0.087067 8.38747 -1.18736 5.6671e-09 -4.89571e-09 -2.07085e-09 9.78484e-09 -8.50188e-09 -3.63759e-09 5.66709e-09 -4.89571e-09 -2.07085e-09 -7.73091 5.47488 -0.417314 5.6671e-09 -4.89571e-09 -2.07087e-09 -2.90554 0.965183 -0.102902 5.6671e-09 -4.89571e-09 -2.07086e-09 -10.2786 0.731801 -0.0259123 5.66711e-09 -4.89571e-09 -2.07087e-09 -2.22167 -0.733487 0.20892 -2.03217e-16 0.0 -3.88251e-19 -22.3249 -55.7544 -10.5901 -31.0192 88.1223 32.0619 -2.78985 -9.0748 -14.3337 2.03217e-16 0.0 3.88251e-19 -1.68174 -56.0898 7.83718 9.51674 84.6369 -10.6541 1.26874 -14.8175 4.18876
